<svg xmlns="http://www.w3.org/2000/svg" xml:space="preserve" style="fill-rule:evenodd;clip-rule:evenodd;stroke-linejoin:round;stroke-miterlimit:2" viewBox="0 0 2401 1353"><path fill="none" d="M553.649 563.973h2400.58v1352.37H553.649z" style="fill:#2a3d55;fill-opacity:0" transform="translate(-553.649 -563.973)"/><path d="M830.271 674.802h15.6v16.8h-3.9v-4.2h-.6c-.566 1.467-1.566 2.65-3 3.55-1.433.9-3.1 1.35-5 1.35-3.766 0-6.725-1.216-8.875-3.65-2.15-2.433-3.225-5.983-3.225-10.65v-7.8c0-4.533 1.084-8.05 3.25-10.55 2.167-2.5 5.184-3.75 9.05-3.75 2 0 3.767.325 5.3.975 1.534.65 2.817 1.55 3.85 2.7 1.034 1.15 1.817 2.5 2.35 4.05.534 1.55.8 3.209.8 4.975v.6h-4.2v-.6c0-1.133-.158-2.233-.475-3.3-.316-1.066-.8-2.008-1.45-2.825-.65-.816-1.483-1.466-2.5-1.95-1.016-.483-2.241-.725-3.675-.725-2.7 0-4.725.984-6.075 2.95-1.35 1.967-2.025 4.55-2.025 7.75v7.2c0 3.434.675 6.075 2.025 7.925 1.35 1.85 3.409 2.775 6.175 2.775 2.5 0 4.459-.8 5.875-2.4 1.417-1.6 2.125-3.833 2.125-6.7v-.6h-11.4v-3.9Zm50.35-18.2h21.2v3.9h-17v11.6h16.7v3.9h-16.7v11.7h17.3v3.9h-21.5v-35Zm75.05 33.2h.6v-33.2h4.2v35h-8.4l-10.1-33.2h-.6v33.2h-4.2v-35h8.4l10.1 33.2Zm40.15-33.2h21.199v3.9h-17v11.6h16.7v3.9h-16.7v11.7h17.3v3.9h-21.499v-35Z" style="fill:#2a3d55;fill-rule:nonzero" transform="translate(-7127.239 -5627.191) scale(9.05737)"/><path d="M821.971 656.602h4.2v15.5h14.9v-15.5h4.2v35h-4.2v-15.6h-14.9v15.6h-4.2v-35Zm75.15 0h21.2v3.9h-17v11.6h16.7v3.9h-16.7v11.7h17.3v3.9h-21.5v-35Zm92.2 26.3h-15l-2.55 8.7h-4.5l10.6-35h7.9l10.6 35h-4.5l-2.55-8.7Zm-7.8-24.5-6.05 20.6h12.7l-6.05-20.6h-.6Zm62.749-1.8h11.5c4.34 0 7.5 1.034 9.5 3.1 2 2.067 3 5.367 3 9.9v9c0 4.534-1 7.834-3 9.9-2 2.067-5.16 3.1-9.5 3.1h-11.5v-3.95h3v-27.15h-3v-3.9Zm10.9 31.1c1.53 0 2.86-.15 3.98-.45 1.11-.3 2.04-.808 2.77-1.525.73-.716 1.28-1.675 1.63-2.875.35-1.2.52-2.716.52-4.55v-8.4c0-1.833-.17-3.35-.52-4.55-.35-1.2-.9-2.158-1.63-2.875-.73-.716-1.66-1.225-2.77-1.525-1.12-.3-2.45-.45-3.98-.45h-3.7v27.2h3.7Zm63.9-31.1h4.2v31.1h18.3v3.9h-22.5v-35Zm74.45 0h21.2v3.9h-17v11.6h16.7v3.9h-16.7v11.7h17.3v3.9h-21.5v-35Zm92.95 10.1c0-1.133-.22-2.133-.67-3-.45-.866-1.06-1.583-1.83-2.15-.77-.566-1.65-1-2.65-1.3-1-.3-2.05-.45-3.15-.45-.97 0-1.88.125-2.75.375-.86.25-1.64.609-2.32 1.075-.69.467-1.23 1.042-1.63 1.725-.4.684-.6 1.475-.6 2.375v.3c0 .967.2 1.792.6 2.475.4.684.99 1.267 1.78 1.75.78.484 1.76.884 2.92 1.2 1.17.317 2.53.592 4.1.825 3.67.567 6.37 1.642 8.1 3.225 1.74 1.584 2.6 3.709 2.6 6.375v.6c0 1.5-.26 2.875-.77 4.125-.52 1.25-1.29 2.325-2.3 3.225-1.02.9-2.28 1.6-3.78 2.1s-3.23.75-5.2.75c-2.23 0-4.21-.325-5.92-.975-1.72-.65-3.15-1.55-4.3-2.7-1.15-1.15-2.03-2.5-2.63-4.05-.6-1.55-.9-3.241-.9-5.075v-1.5h4.2v1.2c0 3.067.84 5.367 2.53 6.9 1.68 1.534 4.02 2.3 7.02 2.3 2.6 0 4.56-.575 5.88-1.725 1.31-1.15 1.97-2.675 1.97-4.575v-.3c0-1.833-.67-3.233-2.02-4.2-1.35-.966-3.55-1.666-6.58-2.1-1.77-.233-3.36-.591-4.77-1.075-1.42-.483-2.63-1.116-3.63-1.9-1-.783-1.76-1.725-2.3-2.825-.53-1.1-.8-2.4-.8-3.9v-.6c0-1.366.28-2.616.85-3.75.57-1.133 1.36-2.116 2.38-2.95 1.01-.833 2.23-1.475 3.65-1.925 1.41-.45 2.97-.675 4.67-.675 1.97 0 3.73.284 5.28.85 1.55.567 2.86 1.325 3.92 2.275 1.07.95 1.88 2.067 2.43 3.35.55 1.284.82 2.625.82 4.025v2.1h-4.2v-1.8Zm74.1 0c0-1.133-.22-2.133-.67-3-.45-.866-1.06-1.583-1.83-2.15-.76-.566-1.65-1-2.65-1.3-1-.3-2.05-.45-3.15-.45-.96 0-1.88.125-2.75.375-.87.25-1.64.609-2.32 1.075-.69.467-1.23 1.042-1.63 1.725-.4.684-.6 1.475-.6 2.375v.3c0 .967.2 1.792.6 2.475.4.684.99 1.267 1.78 1.75.78.484 1.76.884 2.92 1.2 1.17.317 2.54.592 4.1.825 3.67.567 6.37 1.642 8.1 3.225 1.73 1.584 2.6 3.709 2.6 6.375v.6c0 1.5-.26 2.875-.77 4.125-.52 1.25-1.29 2.325-2.3 3.225-1.02.9-2.28 1.6-3.78 2.1s-3.23.75-5.2.75c-2.23 0-4.21-.325-5.92-.975-1.72-.65-3.15-1.55-4.3-2.7-1.15-1.15-2.03-2.5-2.63-4.05-.6-1.55-.9-3.241-.9-5.075v-1.5h4.2v1.2c0 3.067.84 5.367 2.53 6.9 1.68 1.534 4.02 2.3 7.02 2.3 2.6 0 4.56-.575 5.88-1.725 1.31-1.15 1.97-2.675 1.97-4.575v-.3c0-1.833-.67-3.233-2.02-4.2-1.35-.966-3.54-1.666-6.58-2.1-1.76-.233-3.36-.591-4.77-1.075-1.42-.483-2.63-1.116-3.63-1.9-1-.783-1.76-1.725-2.3-2.825-.53-1.1-.8-2.4-.8-3.9v-.6c0-1.366.29-2.616.85-3.75.57-1.133 1.36-2.116 2.38-2.95 1.01-.833 2.23-1.475 3.65-1.925 1.41-.45 2.97-.675 4.67-.675 1.97 0 3.73.284 5.28.85 1.55.567 2.85 1.325 3.92 2.275 1.07.95 1.88 2.067 2.43 3.35.55 1.284.82 2.625.82 4.025v2.1h-4.2v-1.8Zm132.15-10.1v23.2c0 2.834.66 4.975 1.98 6.425 1.31 1.45 3.25 2.175 5.82 2.175 2.57 0 4.51-.725 5.83-2.175 1.31-1.45 1.97-3.591 1.97-6.425v-23.2h4.2v23.2c0 4.067-1.07 7.167-3.2 9.3-2.13 2.134-5.06 3.2-8.8 3.2-3.73 0-6.66-1.066-8.8-3.2-2.13-2.133-3.2-5.233-3.2-9.3v-23.2h4.2Zm70.8 0h22.2v3.9h-9v27.2h9v3.9h-22.2v-3.9h9v-27.2h-9v-3.9Z" style="fill:#2a3d55;fill-rule:nonzero" transform="translate(-1577.889 -561.232) scale(2.31119)"/></svg>